<?xml version="1.0" encoding="UTF-8"?>
<svg version="1.1" xmlns="http://www.w3.org/2000/svg" width="512" height="512">
<path d="M0 0 C1.01790619 0.00215515 2.03581238 0.0043103 3.08456421 0.00653076 C17.69363523 0.05620146 32.02575853 0.30709809 46.375 3.3125 C47.34985352 3.51117676 48.32470703 3.70985352 49.32910156 3.91455078 C88.47564494 12.10330594 124.69815091 27.79453981 156.375 52.3125 C157.261875 52.98667969 158.14875 53.66085938 159.0625 54.35546875 C174.64607275 66.46770077 189.25647311 80.753451 201.375 96.3125 C202.52162109 97.71628906 202.52162109 97.71628906 203.69140625 99.1484375 C238.32002637 142.39252491 256.81365997 197.89189907 256.69067383 253.03979492 C256.6875221 255.97938487 256.71104926 258.9179558 256.73632812 261.85742188 C256.78098737 275.23056192 255.57551542 288.12666711 253.375 301.3125 C253.09281616 303.01805054 253.09281616 303.01805054 252.80493164 304.75805664 C245.77946967 343.86954746 228.79665906 381.05202178 204.375 412.3125 C203.61574219 413.28445313 202.85648437 414.25640625 202.07421875 415.2578125 C189.73986402 430.63741644 175.93895499 445.19015196 160.375 457.3125 C159.43914062 458.07691406 158.50328125 458.84132813 157.5390625 459.62890625 C125.58628299 485.2157721 86.41988322 501.72551276 46.375 509.3125 C45.56562988 509.47621094 44.75625977 509.63992188 43.92236328 509.80859375 C13.88110013 515.67977137 -20.7615176 514.58512909 -50.625 508.3125 C-52.14794678 507.99901611 -52.14794678 507.99901611 -53.70166016 507.67919922 C-90.84546555 499.78695344 -125.70945445 483.68345578 -155.625 460.3125 C-156.59695312 459.55324219 -157.56890625 458.79398437 -158.5703125 458.01171875 C-173.94991644 445.67736402 -188.50265196 431.87645499 -200.625 416.3125 C-201.77162109 414.90871094 -201.77162109 414.90871094 -202.94140625 413.4765625 C-228.5282721 381.52378299 -245.03801276 342.35738322 -252.625 302.3125 C-252.78871094 301.50312988 -252.95242187 300.69375977 -253.12109375 299.85986328 C-258.59069558 271.87335724 -258.46977511 238.21828161 -252.625 210.3125 C-252.42632324 209.33764648 -252.22764648 208.36279297 -252.02294922 207.35839844 C-243.85281954 168.30089461 -228.22714583 131.86349681 -203.625 100.3125 C-202.95210937 99.42820312 -202.27921875 98.54390625 -201.5859375 97.6328125 C-189.4823765 82.04262899 -175.18331503 67.43045523 -159.625 55.3125 C-158.68914062 54.54808594 -157.75328125 53.78367188 -156.7890625 52.99609375 C-112.48174637 17.51607068 -56.33754016 -0.21452306 0 0 Z " fill="#454F55" transform="translate(255.625,-0.3125)"/>
<path d="M0 0 C0.64831787 0.12189697 1.29663574 0.24379395 1.96459961 0.36938477 C40.90952163 7.58448039 80.07586854 10.73656523 119.61791992 11.65869141 C120.83842041 11.6901123 122.0589209 11.7215332 123.31640625 11.75390625 C124.93204468 11.78979858 124.93204468 11.78979858 126.58032227 11.82641602 C129 12 129 12 130 13 C130.31378065 14.80423871 130.62182321 16.60968714 130.89892578 18.41992188 C134.25277455 40.0823331 143.77379937 58.52295657 158 75 C158.87205078 76.02480469 158.87205078 76.02480469 159.76171875 77.0703125 C172.58586414 90.96044479 191.78542441 100.84458352 210 105 C210.84175781 105.21140625 211.68351563 105.4228125 212.55078125 105.640625 C239.01225958 112.03890992 268.07810196 106.27198937 291.18554688 92.17871094 C296.78862145 88.53882342 301.92721423 84.33588304 307 80 C308.01126953 79.14341797 308.01126953 79.14341797 309.04296875 78.26953125 C326.27058023 62.35138192 336.67580586 38.37407761 339.60546875 15.484375 C340 13 340 13 341 12 C342.99089435 11.87637049 344.98597816 11.81991462 346.98046875 11.7890625 C348.27009521 11.76287842 349.55972168 11.73669434 350.88842773 11.7097168 C351.58636444 11.69645355 352.28430115 11.68319031 353.00338745 11.66952515 C378.89224107 11.14175701 404.65923402 8.97574619 430.375 6 C431.05553436 5.9223642 431.73606873 5.84472839 432.43722534 5.76473999 C441.17840899 4.75600337 449.75400489 3.36168535 458.36572266 1.5859375 C461.97875587 1.00342509 465.34748465 0.89653264 469 1 C469.58924933 17.76867604 468.30811448 33.55099151 465 50 C464.85046875 50.74652832 464.7009375 51.49305664 464.546875 52.26220703 C458.30913076 82.17305704 445.73873178 111.146633 428 136 C427.57525391 136.59989746 427.15050781 137.19979492 426.71289062 137.81787109 C419.69890944 147.66366062 412.07089592 156.6539208 403.64013672 165.31298828 C402.13386838 166.86230568 400.6453131 168.42658294 399.16015625 169.99609375 C392.83399394 176.54520451 386.05886716 182.18092435 378.79736328 187.63818359 C377.06382784 188.95163927 375.35709826 190.29403743 373.65234375 191.64453125 C342.79378447 215.67851651 304.43773137 229.52521078 266 235 C265.22382324 235.11714355 264.44764648 235.23428711 263.64794922 235.35498047 C204.22577073 244.17331038 142.71892955 225.72785786 94.8125 190.5625 C78.31596416 177.85904519 62.60204056 163.64115613 50 147 C49.57944336 146.45585449 49.15888672 145.91170898 48.72558594 145.35107422 C17.77706139 105.22478807 -3.00042517 51.1405802 0 0 Z " fill="#FEFEFE" transform="translate(21,254)"/>
<path d="M0 0 C1.11955078 -0.00012085 2.23910156 -0.0002417 3.39257812 -0.00036621 C18.68835669 0.02321807 33.46126508 0.39226773 48.43066406 3.83691406 C50.72523422 4.35528559 53.01804894 4.78033187 55.3359375 5.1796875 C74.24216456 8.61641757 93.08235467 16.1179141 109.90380859 25.33447266 C111.97096293 26.46138642 114.0566006 27.54882362 116.14453125 28.63671875 C143.56099175 43.13928537 169.12231751 64.56273 187.8125 89.375 C188.28187988 89.9844043 188.75125977 90.59380859 189.23486328 91.22167969 C207.85898537 115.49462998 221.6382109 142.88589127 229.8125 172.375 C230.10979004 173.44403564 230.10979004 173.44403564 230.41308594 174.53466797 C233.75863667 186.76877718 235.98249232 198.66020434 235.8125 211.375 C222.65496087 214.43767816 209.3869315 216.34635631 196 218.0625 C194.75003738 218.22484634 194.75003738 218.22484634 193.474823 218.39047241 C183.92623082 219.62378488 174.42692065 220.64499649 164.80981445 221.13989258 C162.31396911 221.33566509 160.2118662 221.73070804 157.8125 222.375 C154.82844179 222.61313667 151.86393882 222.80021685 148.875 222.9375 C147.98143799 222.9799585 147.08787598 223.02241699 146.16723633 223.06616211 C133.39059447 223.6018907 120.59708948 223.46211587 107.8125 223.375 C107.55726563 221.86873047 107.55726563 221.86873047 107.296875 220.33203125 C103.72904099 199.89555848 97.1695824 182.47258724 83.8125 166.375 C82.78382813 165.10076172 82.78382813 165.10076172 81.734375 163.80078125 C65.37578492 144.50370369 41.77597754 132.59742901 16.8125 129.375 C11.93421573 129.05882136 7.07518643 128.9934963 2.1875 129 C1.52808411 129.00021149 0.86866821 129.00042297 0.18927002 129.00064087 C-10.488856 129.03476507 -20.08929192 129.91405834 -30.1875 133.375 C-31.21746094 133.725625 -32.24742187 134.07625 -33.30859375 134.4375 C-60.91416602 144.99580653 -81.23590556 164.94497379 -93.9140625 191.45703125 C-97.72373662 200.1865606 -99.86769628 208.99640758 -101.57421875 218.3203125 C-102.1875 221.375 -102.1875 221.375 -103.1875 223.375 C-135.57783527 224.20573989 -168.46139797 222.40436001 -200.39794922 216.85253906 C-203.17911404 216.37643558 -205.96364044 215.94264632 -208.75390625 215.5234375 C-210.46093814 215.26562924 -212.16796943 215.00781701 -213.875 214.75 C-214.61186035 214.63914063 -215.3487207 214.52828125 -216.10791016 214.4140625 C-220.88555154 213.66445358 -225.50938141 212.6035968 -230.1875 211.375 C-230.50353123 203.63223488 -229.50440624 195.99767625 -228.1875 188.375 C-227.8575 188.045 -227.5275 187.715 -227.1875 187.375 C-226.89107073 185.75636826 -226.60035698 184.13648699 -226.33813477 182.51196289 C-224.30956588 170.06665617 -220.58037978 157.88165336 -215.1640625 146.4765625 C-214.0041675 143.98046846 -213.01387999 141.43383996 -212 138.875 C-197.3304515 103.67702846 -170.80088401 70.08670374 -139.97998047 47.68017578 C-138.07701072 46.29454839 -136.197736 44.87968194 -134.31640625 43.46484375 C-117.95437114 31.35940707 -99.53266203 21.07909043 -80.25 14.4375 C-79.54182129 14.19153076 -78.83364258 13.94556152 -78.10400391 13.69213867 C-64.33181945 8.97430567 -50.5544333 4.82935111 -36.1875 2.375 C-35.44330811 2.20726074 -34.69911621 2.03952148 -33.93237305 1.86669922 C-22.76970045 -0.41706175 -11.34094699 -0.0186556 0 0 Z " fill="#E7514E" transform="translate(253.1875,21.625)"/>
<path d="M0 0 C0.58924933 16.76867604 -0.69188552 32.55099151 -4 49 C-4.14953125 49.74652832 -4.2990625 50.49305664 -4.453125 51.26220703 C-10.69086924 81.17305704 -23.26126822 110.146633 -41 135 C-41.42474609 135.59989746 -41.84949219 136.19979492 -42.28710938 136.81787109 C-49.30109056 146.66366062 -56.92910408 155.6539208 -65.35986328 164.31298828 C-66.86613162 165.86230568 -68.3546869 167.42658294 -69.83984375 168.99609375 C-76.16600606 175.54520451 -82.94113284 181.18092435 -90.20263672 186.63818359 C-91.93617216 187.95163927 -93.64290174 189.29403743 -95.34765625 190.64453125 C-126.20621553 214.67851651 -164.56226863 228.52521078 -203 234 C-203.77617676 234.11714355 -204.55235352 234.23428711 -205.35205078 234.35498047 C-264.77422927 243.17331038 -326.28107045 224.72785786 -374.1875 189.5625 C-390.6780061 176.8636885 -406.41696701 162.64796923 -419 146 C-419.44714355 145.41331543 -419.89428711 144.82663086 -420.35498047 144.22216797 C-425.78329785 137.0761902 -430.91876626 130.02173529 -435 122 C-431.33630352 123.27597705 -429.01131993 124.67073214 -426.25 127.375 C-404.38866146 147.35423654 -375.21083473 162.49395602 -347 171 C-346.27989746 171.21849609 -345.55979492 171.43699219 -344.81787109 171.66210938 C-283.27522944 189.93069767 -218.32522743 182.12114237 -162 152 C-150.68108078 145.60401467 -140.0251584 138.27168508 -130 130 C-129.15211914 129.30438965 -129.15211914 129.30438965 -128.28710938 128.59472656 C-115.96568978 118.42649881 -104.84331199 107.61337678 -95 95 C-94.19949219 94.00484375 -93.39898437 93.0096875 -92.57421875 91.984375 C-73.00157634 67.44205657 -58.76200848 38.38417794 -51 8 C-52.98 8 -54.96 8 -57 8 C-57 7.67 -57 7.34 -57 7 C-56.05382812 6.89453857 -55.10765625 6.78907715 -54.1328125 6.68041992 C-50.53869728 6.27819364 -46.94551811 5.8680521 -43.35253906 5.45581055 C-41.813061 5.28023081 -40.2733535 5.10664845 -38.73339844 4.93530273 C-29.23619264 3.87695398 -19.90884265 2.52954918 -10.55078125 0.5793457 C-6.96810409 -0.00520414 -3.62306447 -0.10144813 0 0 Z " fill="#E5E5E5" transform="translate(490,255)"/>
<path d="M0 0 C18.317678 -0.54786293 34.68230305 7.15852255 47.94140625 19.47265625 C61.22209078 33.48409615 65.88780594 50.4074718 65.5 69.14453125 C64.70430892 86.66954481 55.6803264 101.39673354 43.19140625 113.16015625 C28.82725835 125.18544136 11.83879208 129.33425906 -6.56396484 128.38232422 C-22.47434795 126.80755278 -37.21903906 117.76580014 -47.80859375 106.16015625 C-56.2182674 95.63110269 -62.430959 82.80535854 -62.80859375 69.16015625 C-62.85886719 68.42023438 -62.90914062 67.6803125 -62.9609375 66.91796875 C-63.67054201 49.60361881 -57.43851573 33.54656363 -46.17773438 20.64257812 C-33.8805964 7.32798793 -17.75363326 1.01237686 0 0 Z " fill="#455055" transform="translate(254.80859375,191.83984375)"/>
<path d="M0 0 C2.71627786 2.16406753 5.29223104 4.41069849 7.84375 6.765625 C8.54757812 7.37792969 9.25140625 7.99023438 9.9765625 8.62109375 C22.48980896 20.12837334 30.60170815 37.3221753 33.84375 53.765625 C34.02808594 54.68601562 34.21242188 55.60640625 34.40234375 56.5546875 C37.48508942 78.97961619 32.09380681 102.11241484 18.84765625 120.54296875 C7.35816498 135.14547726 -5.72811705 144.59412434 -23.15625 150.765625 C-23.99414062 151.11753906 -24.83203125 151.46945312 -25.6953125 151.83203125 C-44.54340983 158.98234119 -67.12973613 155.23200445 -85.28125 148.140625 C-106.84536776 138.35213469 -121.70813071 120.98606847 -130.8671875 99.5078125 C-134.28955245 89.57258335 -135.68592318 80.46374773 -135.59375 69.953125 C-135.58021484 68.10219238 -135.58021484 68.10219238 -135.56640625 66.21386719 C-135.13345593 43.41783003 -125.1513966 23.19152641 -109.05395508 7.1706543 C-100.53794609 -0.92302989 -90.14839976 -7.13866988 -79.15625 -11.234375 C-77.62097656 -11.8221875 -77.62097656 -11.8221875 -76.0546875 -12.421875 C-50.82418059 -20.62321359 -21.47369448 -15.2016748 0 0 Z M-90.15625 19.765625 C-90.84203125 20.27609375 -91.5278125 20.7865625 -92.234375 21.3125 C-104.70230956 31.22794402 -111.74111485 46.39897622 -113.87890625 61.93359375 C-115.64609097 79.97878985 -110.86907087 96.98164272 -99.5 111.1171875 C-88.36452376 123.70027565 -72.81592438 133.08808288 -55.7421875 134.140625 C-37.38471224 134.67254919 -20.89127602 129.67937498 -6.71484375 117.703125 C4.74050528 106.84864876 13.51340483 91.00871859 14.14453125 74.99609375 C14.32418761 61.59098904 14.32418761 61.59098904 10.84375 48.765625 C10.59625 48.16830566 10.34875 47.57098633 10.09375 46.95556641 C3.15818763 30.65619212 -7.55802429 18.27755415 -24.03125 11.015625 C-46.77546881 2.20296733 -70.71319948 4.34527459 -90.15625 19.765625 Z " fill="#576A73" transform="translate(306.15625,186.234375)"/>
<path d="M0 0 C9.08577291 6.98546581 15.7310258 17.28649438 17.28125 28.75390625 C18.5321278 40.99326437 14.75528951 53.01096189 7.28125 62.75390625 C-0.64700616 71.54931543 -11.49103264 76.97331384 -23.3046875 77.97265625 C-36.19465175 78.40593236 -47.41649064 73.41461252 -56.8671875 64.7734375 C-65.30771551 55.56720759 -69.15957237 44.1359326 -68.9921875 31.81640625 C-67.92483327 19.86203889 -62.56693326 10.07719961 -53.90625 1.94140625 C-37.70759815 -11.34336819 -17.41731067 -11.28166714 0 0 Z " fill="#F2F2F2" transform="translate(281.71875,221.24609375)"/>
<path d="M0 0 C9.02609844 7.5217487 16.82039903 15.69241763 24 25 C24.48098145 25.62100586 24.96196289 26.24201172 25.45751953 26.88183594 C44.06308915 51.14486168 57.83106707 78.53021388 66 108 C66.29729004 109.06903564 66.29729004 109.06903564 66.60058594 110.15966797 C69.94613667 122.39377718 72.16999232 134.28520434 72 147 C57.4112951 150.17917574 42.83515345 152.33286986 28 154 C28.14447285 151.74991223 28.29066689 149.49993498 28.4375 147.25 C28.50408813 146.21564819 28.50408813 146.21564819 28.57202148 145.16040039 C28.83002662 141.24225915 29.16212024 137.34406255 29.5625 133.4375 C33.1608044 90.0837357 24.37336465 41.66447089 1.35107422 4.32568359 C0 2 0 2 0 0 Z " fill="#CD3A37" transform="translate(417,86)"/>
</svg>
